<svg xmlns="http://www.w3.org/2000/svg" xmlns:xlink="http://www.w3.org/1999/xlink" width="818" height="370" viewBox="0 0 818 370">
    <defs>
        <linearGradient id="7q2whnku3c" x1="67.115%" x2="16.308%" y1="34.457%" y2="80.572%">
            <stop offset="0%" stop-color="#FFF"/>
            <stop offset="100%" stop-color="#E5D4EF"/>
        </linearGradient>
        <rect id="j7un2j1dfa" width="818" height="370" x="0" y="0" rx="20"/>
    </defs>
    <g fill="none" fill-rule="evenodd">
        <g>
            <g transform="translate(-597 -623) translate(597 623)">
                <mask id="ox4zjjv2vb" fill="#fff">
                    <use xlink:href="#j7un2j1dfa"/>
                </mask>
                <use fill="#5A7288" xlink:href="#j7un2j1dfa"/>
                <g mask="url(#ox4zjjv2vb)">
                    <g fill-rule="nonzero" transform="translate(215 40.457)">
                        <path fill="#171B23" d="M105.229 283.95l-97.78-56.465C2.513 224.641.065 220.87 0 216.901v-3.744c.41-4.617.093-14.367 6.615-18.137 4.348-2.514 82.297-42.675 233.848-120.483 12.727-7.356 31.99-8.15 43.023-1.786l100.175 44.213c4.921 2.845 4.974 10.081 5.054 14.064v5.199c-.397 4.617-3.97 9.406-10.505 13.23L148.252 282.163c-12.727 7.356-32.003 8.11-43.023 1.786z"/>
                        <path fill="#B0CEE6" fill-opacity=".646" d="M11.364 190.707l229.324-132.39c12.422-7.183 31.222-7.938 41.99-1.746l97.41 56.24c10.77 6.217 9.42 17.079-3.016 24.25l-229.31 132.402c-12.436 7.17-31.235 7.938-41.99 1.733l-97.424-56.24c-10.756-6.217-9.406-17.066 3.016-24.25z"/>
                        <path fill="#FFF" d="M15.2 191.05L241.747 60.289c11.007-6.363 27.676-7.051 37.215-1.547l95.73 55.273c9.539 5.504 8.335 15.122-2.646 21.485L145.527 266.301c-11.02 6.35-27.677 7.051-37.216 1.535l-95.782-55.26c-9.54-5.517-8.348-15.135 2.672-21.525z"/>
                        <path fill="#EADDF3" d="M331.364 172.436c.249-.014.49-.092.701-.224l11.629-6.721c1.402-1.041 2.242-2.673 2.275-4.419 0-.754-.224-1.627-.886-1.627-.25.013-.49.09-.701.225l-11.629 6.72c-1.41 1.036-2.257 2.67-2.289 4.42 0 .753.278 1.626.9 1.626zM310.606 184.436c.245-.015.482-.093.688-.225l11.643-6.72c1.402-1.042 2.242-2.674 2.275-4.42 0-.754-.238-1.627-.9-1.627-.248.015-.49.092-.7.225l-11.63 6.72c-1.402 1.042-2.242 2.674-2.275 4.42 0 .74.225 1.627.9 1.627z" opacity=".8"/>
                        <path fill="url(#7q2whnku3c)" d="M124.849 268.18c-4.942.096-9.826-1.08-14.183-3.414l-92.978-53.672c-3.969-2.263-6.072-5.292-6.072-8.573 0-3.281 2.13-6.245 5.993-8.48l231.52-133.7c8.859-4.516 19.345-4.516 28.205 0l93.097 53.74c3.969 2.262 6.073 5.291 6.073 8.559 0 3.268-2.197 6.231-6.073 8.48l-231.52 133.7c-4.32 2.31-9.164 3.468-14.062 3.36zM263.27 58.304c-4.654-.099-9.255 1-13.362 3.188l-231.52 133.7c-3.44 1.984-5.292 4.59-5.292 7.329 0 2.738 1.919 5.41 5.411 7.422l92.979 53.686c4.157 2.212 8.812 3.324 13.52 3.228 4.652.096 9.251-.997 13.362-3.175l231.52-133.713c3.44-1.984 5.292-4.59 5.292-7.33 0-2.738-1.919-5.397-5.411-7.42l-93.045-53.687c-4.138-2.202-8.768-3.313-13.454-3.228z" style="mix-blend-mode:multiply"/>
                        <path fill="#363C7C" d="M184.779 208.25l-44.24-25.534c-4.458-2.646-3.969-7.078 1.323-10.055 5.146-2.976 12.952-3.307 17.41-.727l44.24 25.546c4.459 2.58 3.903 7.078-1.243 10.055-5.226 2.91-13.018 3.228-17.49.714z"/>
                        <path fill="#FFF" d="M181.591 194.781L180.426 190.892 178.561 191.977 166.615 185.071 164.762 186.129 176.722 193.035 174.857 194.12zM195.64 196.448c-3.192-1.621-6.967-1.621-10.16 0-2.646 1.535-2.765 3.97-.317 5.636l-2.488 1.442 5.015-.357c2.66.688 5.481.387 7.937-.847 2.818-1.627 2.818-4.246.014-5.874zM313.967 90.836L208.553 29.979c-8.573-4.948-7.462-13.56 2.408-19.302l9.353-5.41c9.896-5.716 24.872-6.338 33.445-1.324l89.882 51.9c8.573 4.948 7.501 13.6-2.395 19.316l-27.28 15.677z"/>
                        <path fill="#DADCE1" d="M341.246 73.928l-27.28 15.757-105.413-60.857c-3.625-2.09-5.504-4.855-5.742-7.766-.225 3.334 1.64 6.615 5.742 8.93L313.967 90.85l27.28-15.743c5.701-3.295 8.453-7.568 8.136-11.537-.252 3.612-2.99 7.383-8.137 10.36z" style="mix-blend-mode:color-dodge"/>
                        <ellipse cx="239.243" cy="20.326" fill="#4B6587" rx="12.317" ry="21.326" transform="rotate(-89.69 239.243 20.326)"/>
                        <path fill="#F1F2F5" d="M242.778 23.695c-.59-.506-.961-1.223-1.032-1.998 0-.41.582-.754 1.323-.754.948.005 1.893-.097 2.818-.304.588.225 1.238.225 1.826 0 .476-.265.635-.635.41-.886 1.892-1.204 2.778-2.646.066-4.207-2.245-1.342-5.045-1.342-7.29 0-.527-.122-1.081-.037-1.548.238-.177.114-.284.311-.284.522 0 .212.107.408.284.523-.345.473-.535 1.042-.542 1.627 0 .424-.582.768-1.323.768-1.176-.016-2.342-.222-3.453-.61-1.475-.508-3.092-.399-4.485.305l-2.103 1.217c-.41.238-.41.609 0 .847l11.271 6.51c.467.23 1.015.23 1.482 0l2.104-1.218c1.124-.688 1.35-1.773.476-2.58z"/>
                        <path fill="#181C20" d="M316.606 54.7l-9.129-5.266c-.405-.234-.904-.236-1.312-.006l-.665.376c-.417.236-.564.765-.329 1.182.077.135.188.247.322.325l9.13 5.266c.405.234.904.236 1.311.006l.666-.376c.417-.236.564-.765.328-1.182-.076-.135-.187-.247-.322-.325zm-5.04 3.97l-11.26-6.497c-.405-.234-.904-.237-1.311-.006l-.666.375c-.417.236-.564.765-.328 1.183.076.135.187.247.322.324l11.259 6.497c.405.234.904.236 1.312.006l.665-.376c.417-.236.564-.765.329-1.182-.077-.135-.188-.247-.322-.325zm16.284 2.494l-7.11-4.14c-.423-.246-.947-.24-1.363.019l-.595.368c-.421.261-.55.815-.29 1.236.078.125.185.229.312.303l7.11 4.14c.423.246.947.239 1.363-.019l.594-.368c.422-.261.552-.815.29-1.236-.077-.125-.184-.23-.311-.303zm-46.337-26.781l-11.332-6.466c-.405-.23-.901-.232-1.307-.003l-.669.378c-.415.235-.561.762-.327 1.177.077.135.189.247.324.325l11.325 6.468c.404.23.9.232 1.305.004l.676-.38c.416-.234.563-.76.33-1.176-.077-.137-.19-.25-.325-.327zm-1.72 5.917l-15.644-8.955c-.405-.232-.902-.233-1.308-.003l-.668.377c-.416.235-.563.762-.328 1.178.077.135.188.248.323.325l15.611 8.946c.398.228.885.233 1.288.015l.708-.383c.417-.226.572-.747.346-1.164-.076-.14-.19-.257-.329-.336zm34.626 20.731l-.664.375c-.418.237-.566.767-.33 1.186.077.135.188.247.322.324l1.496.869c.406.235.906.238 1.315.007l.663-.375c.419-.236.566-.767.33-1.185-.076-.135-.187-.247-.321-.325l-1.497-.868c-.406-.235-.906-.238-1.314-.008zm-16.375-17.033l-12.48-7.206c-.41-.237-.915-.237-1.325 0l-.628.364c-.412.24-.552.767-.313 1.179.075.13.184.239.314.314l12.48 7.207c.41.237.916.236 1.325-.001l.628-.364c.412-.239.552-.766.314-1.179-.076-.13-.185-.238-.315-.314zm5.332 3.07l-1.244-.717c-.405-.234-.904-.236-1.311-.006l-.666.376c-.417.236-.564.765-.328 1.182.076.135.187.247.322.324l1.244.717c.405.234.904.236 1.311.006l.666-.376c.417-.236.564-.765.328-1.182-.076-.135-.187-.247-.322-.324zm-7.186 2.756l-4.974-2.842c-.405-.231-.901-.233-1.307-.003l-.668.377c-.416.235-.562.762-.327 1.177.076.135.188.248.323.325l4.973 2.842c.405.231.902.232 1.308.003l.668-.378c.415-.234.562-.76.327-1.176-.076-.136-.188-.248-.323-.325zm-13.639-7.13l-.666.376c-.417.235-.564.764-.328 1.18.076.136.187.248.322.325l3.294 1.896c.406.233.904.235 1.311.005l.666-.376c.417-.236.564-.764.328-1.18-.076-.136-.187-.248-.322-.326l-3.294-1.895c-.406-.233-.904-.235-1.31-.005zm36.806 23.436l7.515 4.35c.406.235.906.237 1.314.007l.664-.376c.418-.236.565-.766.33-1.184-.077-.134-.188-.247-.322-.324l-7.516-4.35c-.405-.235-.905-.238-1.313-.007l-.664.375c-.418.236-.566.766-.33 1.184.077.135.188.247.322.325zm-51.661-18.113l12.463 7.197c.405.234.904.237 1.312.006l.665-.376c.418-.235.565-.765.329-1.182-.076-.135-.187-.247-.322-.325L269.68 46.14c-.406-.234-.905-.236-1.312-.006l-.665.376c-.418.236-.565.765-.33 1.182.077.135.188.248.323.325zm-2.186-4.239l-11.456-6.546c-.405-.232-.901-.233-1.307-.004l-.669.378c-.415.235-.561.761-.327 1.177.077.135.189.247.324.325l11.456 6.546c.405.231.901.232 1.307.003l.668-.378c.416-.234.562-.76.327-1.176-.076-.136-.188-.248-.323-.325zm18.757 13.802l1.236.716c.406.234.906.237 1.314.006l.664-.375c.417-.236.564-.764.328-1.181-.076-.135-.187-.248-.322-.325l-1.242-.716c-.406-.234-.906-.236-1.314-.004l-.658.374c-.417.236-.563.766-.326 1.183.076.134.186.245.32.322z"/>
                        <path fill="#000" d="M172.912 163.268l-86.68-50.008c-2.69-1.56-4.344-4.433-4.344-7.54 0-3.109 1.655-5.982 4.343-7.542l36.011-22.41c2.704-1.568 6.04-1.568 8.745 0l86.681 50.06c2.688 1.56 4.343 4.433 4.343 7.541 0 3.108-1.655 5.981-4.343 7.541l-36.011 22.358c-2.704 1.568-6.04 1.568-8.745 0z" opacity=".3"/>
                        <path fill="#DADCE1" d="M175.955 175.175l-103.337-59.93c-8.573-4.895-12.396-17.702-2.5-23.417l43.062-18.019c9.896-5.702 24.872-6.324 33.445-1.323l90.186 47.124c8.573 4.948 7.197 18.363-2.699 24.078l-58.157 31.487z"/>
                        <path fill="#FFF" d="M175.386 169.486L69.972 108.63c-8.573-4.895-7.488-13.587 2.408-19.302l38.154-22.134c9.896-5.702 24.872-6.323 33.445-1.323l89.882 51.9c8.573 4.948 7.501 13.587-2.394 19.303l-56.081 32.412z"/>
                        <g transform="translate(108.298 69.341)">
                            <ellipse cx="21.578" cy="12.428" fill="#4B6587" rx="12.317" ry="21.326" transform="rotate(-89.69 21.578 12.428)"/>
                            <path fill="#F1F2F5" d="M25.112 15.804c-.596-.503-.967-1.222-1.032-1.998 0-.41.582-.74 1.323-.74.947-.007 1.892-.113 2.818-.318.589.216 1.236.216 1.825 0 .476-.278.635-.649.41-.9 1.892-1.204 2.792-2.646.08-4.207-2.249-1.344-5.054-1.344-7.303 0-.528-.12-1.08-.035-1.548.238-.177.115-.285.311-.285.523 0 .21.108.408.285.522-.34.481-.529 1.052-.542 1.64 0 .41-.57.768-1.323.755-1.187.005-2.367-.182-3.493-.556-1.476-.502-3.09-.392-4.485.304L9.74 12.285c-.19.058-.318.232-.318.43 0 .197.129.371.318.43L21.01 19.64c.467.232 1.015.232 1.482 0l2.104-1.217c1.217-.728 1.389-1.8.516-2.62z"/>
                        </g>
                        <path fill="#181C20" d="M188.409 116.439l-5.038-2.714c-.4-.215-.883-.21-1.278.013l-.688.389c-.405.229-.548.743-.319 1.149.078.137.192.25.33.325l5.047 2.751c.408.223.903.215 1.304-.021l.67-.394c.41-.24.546-.768.305-1.177-.08-.136-.195-.247-.333-.321zm5.522-.784l7.561 4.37c.407.235.909.236 1.317.003l.664-.378c.418-.239.564-.772.326-1.19-.077-.136-.188-.247-.323-.325l-7.58-4.372c-.412-.237-.919-.236-1.329.003l-.64.374c-.418.244-.559.78-.315 1.198.077.132.187.241.319.317zm3.037 8.66l7.16 4.15c.405.235.905.238 1.313.007l.664-.375c.418-.236.566-.767.33-1.185-.077-.135-.187-.247-.321-.324l-7.16-4.15c-.405-.236-.905-.238-1.314-.008l-.663.375c-.418.237-.566.767-.33 1.185.077.135.187.247.321.325zm8.685-1.926l2.073 1.196c.406.234.905.237 1.312.006l.666-.376c.417-.235.564-.765.329-1.183-.077-.135-.188-.247-.322-.324l-2.094-1.21c-.411-.238-.918-.237-1.329.002l-.64.374c-.417.244-.558.78-.314 1.198.077.131.187.24.319.317zm-45.47-25.972l3.319 1.892c.404.23.9.232 1.306.003l.669-.378c.415-.235.56-.76.326-1.175-.076-.136-.188-.248-.323-.325l-3.32-1.893c-.404-.23-.9-.231-1.306-.002l-.669.378c-.415.234-.56.76-.327 1.175.077.136.189.248.324.325zm11.42 10.527l-1.248-.724c-.407-.236-.91-.238-1.319-.005l-.662.377c-.418.239-.563.77-.325 1.188.077.135.188.247.323.324l1.252.719c.406.233.905.234 1.312.003l.66-.375c.417-.237.563-.767.326-1.185-.076-.134-.186-.245-.32-.322zm2.912-5.283l-5.013-2.848c-.404-.23-.9-.23-1.304-.001l-.67.378c-.415.234-.56.76-.327 1.173.077.136.19.248.325.325l5.012 2.848c.404.23.9.23 1.304.002l.67-.379c.415-.234.56-.759.327-1.173-.077-.136-.189-.248-.324-.325zm9.81 5.673l-5.69-3.263c-.406-.233-.906-.233-1.313-.001l-.666.38c-.417.237-.562.767-.325 1.184.078.135.19.247.325.324l5.696 3.251c.406.231.903.232 1.31.001l.66-.375c.415-.236.56-.763.325-1.178-.076-.134-.187-.246-.321-.323zm.51 13.967l-5.453-2.989c-.403-.22-.892-.217-1.291.01l-.681.389c-.408.232-.55.751-.317 1.159.078.137.192.25.33.325l5.454 2.979c.401.22.887.216 1.285-.01l.683-.385c.407-.23.55-.746.32-1.152-.077-.137-.191-.25-.33-.326zm-15.418-26.479l12.578 7.227c.406.233.903.235 1.31.005l.667-.376c.417-.236.564-.764.328-1.181-.076-.135-.188-.247-.322-.325l-12.579-7.238c-.407-.235-.907-.236-1.315-.003l-.665.379c-.418.238-.564.77-.325 1.188.077.135.188.247.323.324zm17.633 36.88l.666-.377c.418-.236.566-.767.33-1.185-.077-.135-.188-.247-.322-.325l-1.586-.92c-.407-.236-.91-.238-1.319-.004l-.662.377c-.419.239-.565.772-.326 1.19.077.135.188.247.323.324l1.585.914c.405.233.904.236 1.311.005zm12.23-2.254l-10.278-5.806c-.404-.228-.898-.228-1.302 0l-.672.38c-.413.234-.559.758-.325 1.17.077.136.189.249.325.326l10.286 5.814c.406.23.903.228 1.308-.004l.663-.38c.414-.237.557-.764.32-1.178-.077-.134-.19-.246-.324-.322zm-29.925-16.83l-9.31-5.37c-.405-.234-.904-.237-1.311-.006l-.666.376c-.417.235-.564.765-.328 1.182.076.135.187.247.321.325l9.303 5.372c.405.234.903.237 1.31.008l.673-.378c.418-.235.566-.765.331-1.183-.076-.136-.188-.249-.323-.327zm22.375-1.145l-3.307-1.761c-.4-.213-.88-.207-1.273.016l-.69.39c-.403.227-.544.737-.317 1.139.078.138.193.25.333.325l3.308 1.77c.4.214.884.208 1.279-.017l.688-.392c.403-.23.543-.742.314-1.145-.079-.138-.195-.25-.335-.325zm-35.808-6.653l-5.008-2.845c-.404-.23-.899-.23-1.304-.002l-.67.38c-.415.233-.56.76-.327 1.173.077.136.189.248.324.325l5.001 2.847c.404.23.898.231 1.303.004l.677-.38c.415-.234.563-.76.33-1.175-.077-.136-.19-.25-.326-.327zm-4.16-6.337l12.585 7.231c.405.233.903.235 1.31.005l.667-.377c.417-.236.564-.765.328-1.182-.076-.135-.187-.247-.322-.324l-12.605-7.269c-.414-.239-.925-.235-1.336.009l-.638.379c-.42.25-.559.792-.31 1.213.079.13.189.24.321.315zm7.953 15.461l-12.58-7.238c-.406-.234-.906-.235-1.314-.003l-.665.379c-.418.238-.564.77-.325 1.188.076.135.188.247.322.325l12.58 7.227c.404.232.902.234 1.309.004l.667-.376c.416-.236.563-.764.328-1.181-.076-.135-.188-.247-.322-.325zm19.537-2.641l-3.544-2.023c-.405-.231-.901-.232-1.307-.003l-.669.378c-.415.234-.561.76-.327 1.176.077.135.189.248.324.325l3.545 2.023c.404.23.9.232 1.306.003l.669-.378c.415-.235.561-.761.327-1.176-.077-.136-.189-.248-.324-.325zm2.627 15.21l-5.055-2.754c-.4-.219-.886-.215-1.284.01l-.683.386c-.406.23-.55.744-.32 1.15.078.137.192.25.33.326l5.048 2.756c.4.219.885.216 1.283-.007l.69-.389c.407-.228.551-.743.323-1.15-.078-.138-.193-.251-.332-.327zm-14.646-5.25l3.545 2.023c.404.231.9.232 1.306.003l.67-.378c.414-.234.56-.76.326-1.176-.077-.135-.188-.247-.324-.325l-3.544-2.023c-.405-.23-.901-.232-1.307-.002l-.669.377c-.415.235-.56.761-.326 1.176.076.136.188.248.323.325zm7.943-5.327l-1.797-1.022c-.405-.23-.9-.23-1.305-.002l-.67.379c-.414.234-.56.76-.326 1.173.076.136.188.248.324.325l1.797 1.022c.405.23.9.23 1.305.002l.67-.379c.414-.234.56-.76.326-1.173-.076-.136-.188-.248-.324-.325zm-13.361 2.24l1.244.722c.408.236.91.238 1.32.005l.661-.377c.42-.24.566-.773.327-1.193-.077-.134-.188-.246-.322-.323l-1.25-.723c-.409-.236-.911-.237-1.32-.003l-.656.376c-.42.24-.564.775-.324 1.194.076.133.187.244.32.322zm52.159 15.813l.868.498c.407.234.906.235 1.314.002l.665-.379c.42-.239.566-.772.327-1.192-.077-.134-.188-.246-.322-.324l-.85-.49c-.403-.233-.899-.237-1.305-.01l-.688.382c-.419.234-.57.763-.336 1.182.077.138.19.252.327.33zm-12.333-.174l7.153 4.147c.408.236.91.238 1.319.005l.662-.378c.42-.239.567-.773.327-1.194-.076-.134-.187-.246-.321-.323l-7.153-4.147c-.408-.236-.91-.238-1.319-.005l-.662.378c-.42.239-.567.774-.327 1.194.076.134.187.246.321.323zm-2.445 5.514l3.46 1.996c.408.235.909.236 1.317.003l.664-.378c.419-.239.565-.772.326-1.191-.077-.135-.188-.247-.322-.324l-3.462-1.996c-.407-.234-.908-.236-1.316-.003l-.664.378c-.419.24-.565.772-.326 1.191.077.135.188.247.323.324zm-9.41-5.351l5.318 2.922c.392.215.867.218 1.262.006l.65-.348c.385-.207.53-.686.324-1.07-.073-.135-.182-.246-.316-.32l-5.318-2.922c-.393-.215-.868-.218-1.263-.006l-.65.349c-.385.206-.53.685-.323 1.07.072.134.182.245.316.319zM167.228 90.55l-6.293-3.634c-.407-.235-.908-.237-1.317-.004l-.663.378c-.42.24-.566.773-.327 1.192.077.135.188.246.322.324l6.293 3.635c.407.235.908.236 1.317.003l.663-.378c.42-.239.566-.772.327-1.192-.077-.134-.188-.246-.322-.324zm55.308 38.487l-9.139-5.157c-.404-.228-.897-.227-1.3 0l-.673.38c-.413.234-.558.757-.325 1.17.076.136.189.248.325.325l9.139 5.157c.404.228.897.228 1.3 0l.673-.38c.413-.234.559-.757.325-1.17-.076-.136-.189-.248-.325-.325zm-10.331.993l-2.07-1.117c-.4-.215-.883-.21-1.279.013l-.687.388c-.404.229-.546.74-.318 1.145.078.137.193.25.332.326l2.077 1.123c.403.217.89.211 1.287-.016l.677-.388c.404-.232.544-.747.313-1.151-.079-.137-.194-.249-.332-.323zm-17.45-9.975l-2.187-1.267c-.408-.236-.91-.238-1.319-.005l-.662.378c-.418.238-.564.77-.326 1.188.077.135.189.247.323.324l2.192 1.26c.406.233.905.234 1.312.003l.66-.374c.417-.237.563-.767.326-1.184-.076-.134-.186-.246-.32-.323zm-36.745-27.89l-3.081-1.782c-.407-.236-.909-.237-1.318-.004l-.663.377c-.418.239-.564.772-.326 1.19.077.135.189.247.323.324l3.08 1.774c.405.234.904.236 1.311.006l.666-.376c.418-.236.565-.766.33-1.184-.077-.135-.188-.247-.322-.325zm-14.927 12.171l-6.16-3.556c-.407-.235-.908-.236-1.317-.003l-.663.378c-.42.239-.565.772-.327 1.191.077.135.188.247.323.324l6.16 3.556c.407.235.908.237 1.316.004l.664-.379c.42-.238.565-.772.326-1.191-.076-.135-.188-.246-.322-.324zm3.716-4.778l-3.883-2.243c-.407-.236-.908-.237-1.317-.004l-.663.378c-.42.239-.565.772-.326 1.19.076.136.188.247.322.325l3.876 2.236c.404.233.902.236 1.31.007l.672-.378c.419-.235.567-.765.332-1.184-.077-.136-.188-.249-.323-.327zm2.779-5.287l-.67-.385c-.406-.234-.907-.235-1.314-.003l-.665.38c-.418.238-.564.77-.326 1.188.077.135.188.247.323.324l.67.385c.406.234.906.235 1.314.003l.665-.38c.418-.238.564-.77.325-1.188-.076-.135-.188-.247-.322-.324zM129.5 124.484l-7.158-4.15c-.406-.235-.906-.238-1.315-.007l-.663.375c-.419.236-.566.767-.33 1.185.076.135.187.247.321.324l7.16 4.15c.405.236.905.238 1.313.008l.664-.375c.418-.237.566-.767.33-1.185-.077-.135-.188-.247-.322-.325zm5.436-.754l7.568 4.367c.406.234.904.236 1.312.006l.665-.376c.418-.236.565-.765.329-1.182-.076-.135-.187-.248-.322-.325l-7.568-4.367c-.405-.234-.904-.236-1.312-.006l-.665.376c-.417.236-.565.765-.329 1.182.076.135.188.248.322.325zm14.34 1.33l2.211 1.277c.405.234.905.236 1.312.006l.665-.376c.418-.236.566-.767.33-1.185-.077-.135-.187-.247-.321-.324l-2.192-1.27c-.402-.234-.896-.239-1.303-.015l-.688.38c-.418.23-.57.757-.34 1.176.077.138.19.253.326.331zm-11.352 7.312l7.16 4.15c.405.235.905.238 1.313.007l.664-.375c.418-.236.566-.767.33-1.185-.077-.135-.187-.247-.321-.325l-7.16-4.15c-.405-.235-.905-.238-1.314-.007l-.663.375c-.419.236-.566.767-.33 1.185.076.135.187.247.321.325zm8.742-1.906l2.175 1.235c.406.23.903.23 1.308-.001l.67-.381c.419-.24.565-.773.326-1.193-.077-.134-.188-.246-.322-.323l-2.119-1.225c-.396-.229-.883-.237-1.287-.02l-.733.392c-.421.226-.58.75-.354 1.172.077.144.194.263.336.344zM93.516 99.78l3.318 1.9c.406.232.905.232 1.312 0l.666-.38c.417-.237.562-.767.325-1.183-.077-.136-.19-.248-.325-.325l-3.316-1.89c-.405-.23-.9-.232-1.306-.003l-.67.378c-.415.235-.561.762-.327 1.178.077.135.188.248.323.325zm11.417 10.527l-1.246-.718c-.406-.234-.904-.236-1.311-.006l-.666.376c-.418.236-.565.766-.329 1.183.076.135.187.247.321.325l1.254.724c.408.236.91.237 1.32.003l.655-.376c.418-.24.563-.772.323-1.19-.076-.133-.187-.244-.32-.321zm2.914-5.287l-5.006-2.845c-.406-.23-.903-.23-1.309.001l-.669.381c-.416.237-.56.767-.324 1.182.077.136.19.248.325.325l5.007 2.844c.406.23.903.23 1.308 0l.67-.382c.415-.237.56-.766.323-1.182-.077-.135-.19-.247-.325-.324zm15.433 8.892l-11.255-6.528c-.407-.236-.91-.238-1.318-.005l-.663.378c-.42.239-.566.774-.327 1.194.077.134.188.246.322.324l11.254 6.527c.408.236.91.238 1.32.005l.661-.377c.42-.24.567-.774.327-1.195-.076-.134-.187-.246-.321-.323zm-20.528-15.728l12.576 7.237c.407.234.907.235 1.315.002l.665-.379c.418-.238.564-.77.325-1.19-.076-.134-.188-.246-.322-.323l-12.576-7.237c-.407-.234-.908-.235-1.315-.003l-.665.38c-.419.238-.564.77-.326 1.189.077.134.188.246.323.324zm35.3 20.394l7.147 4.144c.408.236.91.238 1.319.004l.662-.377c.42-.24.567-.775.327-1.195-.076-.134-.187-.246-.32-.324l-7.143-4.146c-.406-.236-.907-.239-1.316-.007l-.67.38c-.42.239-.568.774-.33 1.195.077.135.189.248.323.326zm-2.187-4.277l-9.169-5.292c-.407-.235-.908-.236-1.316-.004l-.664.379c-.419.239-.565.772-.326 1.19.077.135.188.247.323.324l9.174 5.29c.408.235.91.236 1.319.002l.656-.377c.418-.24.563-.772.324-1.19-.077-.134-.188-.245-.321-.322zm-3.048 5.17l-5.41-3.121c-.405-.234-.904-.237-1.311-.006l-.665.376c-.418.236-.566.766-.33 1.184.077.135.188.247.322.324l5.41 3.132c.406.235.908.237 1.317.004l.663-.378c.419-.239.565-.772.326-1.191-.077-.135-.188-.246-.322-.324zm-47.714-17.623l12.577 7.237c.406.234.907.235 1.314.003l.665-.379c.419-.238.565-.771.326-1.19-.077-.134-.188-.246-.323-.324L87.086 99.96c-.407-.235-.907-.236-1.315-.003l-.664.379c-.419.238-.565.77-.326 1.19.077.134.188.246.322.323zm33.082 16.115l-9.163-5.29c-.407-.234-.909-.236-1.317-.003l-.664.378c-.419.24-.565.773-.326 1.192.077.134.188.246.322.324l9.164 5.289c.407.235.908.236 1.316.003l.664-.378c.419-.239.565-.772.326-1.191-.077-.135-.188-.247-.322-.324zm-17.632-24.037l-6.299-3.638c-.405-.235-.904-.237-1.312-.007l-.665.376c-.417.236-.565.766-.329 1.183.077.135.188.247.322.325l6.298 3.638c.406.234.905.236 1.313.006l.665-.376c.417-.236.564-.765.328-1.183-.076-.135-.187-.247-.321-.324zm55.064 34.794l9.166 5.29c.405.234.904.237 1.312.006l.665-.376c.418-.236.565-.766.33-1.183-.077-.135-.188-.247-.322-.325l-9.167-5.302c-.407-.235-.909-.237-1.317-.004l-.663.378c-.42.24-.565.772-.327 1.192.077.134.188.246.323.324zm-36.233-20.931l1.248.723c.407.237.91.239 1.319.006l.662-.378c.418-.238.563-.77.325-1.188-.077-.135-.188-.246-.323-.324l-1.252-.718c-.406-.233-.905-.234-1.312-.003l-.66.374c-.417.237-.563.768-.326 1.185.076.134.186.245.32.323zm41.7 27.948l-6.634-3.78c-.406-.232-.904-.232-1.31 0l-.668.38c-.416.238-.562.768-.324 1.184.077.135.189.247.324.324l6.635 3.781c.406.232.904.232 1.31 0l.668-.38c.416-.238.561-.768.324-1.184-.077-.136-.19-.248-.324-.325zm-25.288-7.626l-2.182-1.247c-.406-.232-.905-.232-1.312 0l-.667.38c-.418.239-.564.772-.326 1.19.077.135.188.247.323.324l2.176 1.255c.408.235.91.236 1.318.002l.67-.383c.42-.24.566-.776.325-1.195-.077-.136-.19-.248-.325-.326zM91.288 95.526l-3.08-1.773c-.405-.234-.904-.236-1.311-.006l-.666.376c-.418.236-.565.766-.329 1.184.076.135.187.247.321.325l3.081 1.782c.407.236.91.237 1.318.004l.663-.377c.418-.24.564-.772.326-1.19-.077-.135-.188-.247-.323-.325zm-8.425 2.08l-.675-.388c-.405-.233-.903-.235-1.31-.005l-.666.377c-.417.235-.564.763-.328 1.18.076.135.187.247.322.324l.675.389c.405.233.903.234 1.31.004l.667-.376c.416-.235.563-.764.328-1.18-.077-.135-.188-.248-.323-.325zM182.16 141.797c-4.992-2.521-10.884-2.521-15.876 0-4.366 2.513-4.34 6.614 0 9.168 4.988 2.533 10.887 2.533 15.875 0 4.38-2.514 4.38-6.628 0-9.168zm-2.554 4.18c.648.37.648.966 0 1.323-.73.356-1.584.356-2.315 0-.28-.099-.469-.364-.469-.661 0-.298.188-.563.469-.662.726-.374 1.589-.374 2.315 0zm-4.683-2.646c.635.37.648.966 0 1.323-.728.37-1.588.37-2.315 0-.635-.37-.649-.966 0-1.323.72-.384 1.579-.404 2.315-.053v.053zm-6.125 6.218c-1.906-1.111-2.474-2.805-1.323-4.22l1.481.37c-.82 1.072-.397 2.355 1.045 3.189 1.749.88 3.76 1.082 5.65.569l.687.846c-2.525.69-5.218.402-7.54-.807v.053z"/>
                        <path fill="#000" d="M298.17 143.57l-59.374-34.398c-2.69-1.556-4.345-4.427-4.345-7.534s1.656-5.978 4.345-7.534l7.792-4.922c2.706-1.562 6.04-1.562 8.745 0l65.99 37.837c2.688 1.56 4.342 4.433 4.342 7.54 0 3.109-1.654 5.982-4.342 7.542l-14.394 1.455c-2.704 1.582-6.05 1.587-8.758.013z" opacity=".3"/>
                        <path fill="#249D60" d="M217.999 100.732l72.525 42.096c8.573 4.948 23.535 4.327 33.431-1.323l9.367-5.397c9.896-5.715 10.967-14.368 2.394-19.316L278.71 83.718c-8.573-4.948-23.536-4.326-33.432 1.323l-27.28 15.69z"/>
                        <path fill="#231F20" d="M333.388 134.719l-9.367 5.397c-9.895 5.716-24.858 6.337-33.431 1.323l-71.44-41.435-1.138.661 72.525 42.097c8.573 4.948 23.536 4.326 33.431-1.323l9.367-5.397c5.729-3.308 8.48-7.594 8.136-11.576-.317 3.585-3.056 7.302-8.083 10.253z" style="mix-blend-mode:color-dodge"/>
                        <path fill="#FFF" d="M278.67 109.384c-8.308 4.802-21.816 4.776-30.164 0-8.348-4.776-8.4-12.621-.092-17.41 8.308-4.79 21.802-4.776 30.163 0 8.362 4.775 8.401 12.62.093 17.41z"/>
                        <path fill="#249D60" d="M271.566 95.704c-5.983-3.036-13.055-3.036-19.038 0-5.292 3.017 0 4.895 5.292 7.938s8.52 6.099 13.759 3.07c5.239-3.03 5.265-7.965-.013-11.008zm-2.011 8.745c-1.422.721-3.103.721-4.525 0l-8.573-4.961c-1.256-.714-1.323-1.892 0-2.646 1.428-.715 3.11-.715 4.538 0l8.573 4.961c.73.004 1.32.6 1.316 1.33-.003.73-.599 1.32-1.33 1.316z"/>
                        <path fill="#249D60" d="M260.294 98.033c-.632-.319-1.378-.319-2.01 0-.557.317-.543.833 0 1.164.632.318 1.378.318 2.01 0 .569-.318.569-.834 0-1.164zM267.663 102.28c-.633-.319-1.378-.319-2.011 0-.256.078-.431.314-.431.582 0 .267.175.504.431.582.633.318 1.378.318 2.01 0 .557-.318.557-.834 0-1.165z"/>
                        <path fill="#FFF" d="M295.682 120.6l-11.32-6.47c-.412-.236-.916-.233-1.325.006l-.63.368c-.412.24-.551.771-.31 1.184.076.13.185.238.316.314l11.282 6.475c.405.232.901.235 1.307.006l.675-.379c.416-.234.564-.761.33-1.177-.077-.137-.19-.25-.325-.327zm10.32-1.257l-15.62-8.925c-.404-.231-.9-.232-1.306-.003l-.669.378c-.415.234-.562.761-.327 1.177.076.135.188.247.323.325l15.612 8.927c.404.231.9.233 1.305.005l.676-.38c.416-.234.564-.76.33-1.177-.077-.136-.189-.25-.325-.327zm6.22 10.816l-12.471-7.195c-.406-.233-.904-.236-1.312-.005l-.665.375c-.418.236-.565.766-.329 1.183.076.135.187.247.322.325l12.465 7.198c.404.233.902.236 1.31.007l.672-.378c.418-.235.567-.765.331-1.183-.076-.136-.188-.249-.323-.327zm10.18-1.311l-4.978-2.845c-.405-.231-.901-.233-1.307-.003l-.668.377c-.415.235-.561.76-.327 1.176.076.135.188.247.324.325l4.984 2.843c.406.231.903.231 1.31 0l.66-.375c.415-.235.56-.761.325-1.175-.077-.135-.188-.247-.322-.323zm-13.648-7.107l-.582.35c-.404.243-.535.768-.292 1.172.075.124.18.227.306.3l3.293 1.897c.41.236.914.235 1.324-.002l.628-.364c.408-.236.547-.759.31-1.167-.075-.131-.185-.24-.317-.315l-3.336-1.888c-.416-.235-.925-.229-1.334.017z"/>
                        <path fill="#000" d="M132.495 239.048L73.107 204.65c-2.688-1.56-4.343-4.433-4.343-7.541 0-3.108 1.655-5.981 4.343-7.541l7.832-4.829c2.7-1.568 6.032-1.568 8.732 0l66.003 37.837c2.688 1.56 4.343 4.433 4.343 7.54 0 3.109-1.655 5.982-4.343 7.542l-14.447 1.442c-2.711 1.543-6.04 1.523-8.732-.053z" opacity=".3"/>
                        <path fill="#249D60" d="M52.31 196.21l72.539 42.097c8.572 4.948 23.535 4.326 33.43-1.39l9.368-5.41c9.895-5.715 10.967-14.354 2.394-19.302l-57.02-33.14c-8.507-4.948-23.535-4.327-33.431 1.402L52.31 196.21z"/>
                        <path fill="#231F20" d="M167.647 230.184l-9.367 5.411c-9.896 5.715-24.859 6.337-33.431 1.39l-71.44-41.436-1.152.661 72.539 42.097c8.572 4.948 23.535 4.326 33.431-1.39l9.367-5.41c5.715-3.307 8.467-7.58 8.136-11.563-.251 3.585-2.99 7.303-8.083 10.24z" style="mix-blend-mode:color-dodge"/>
                        <ellipse cx="97.857" cy="196.132" fill="#FFF" rx="12.317" ry="21.326" transform="rotate(-89.69 97.857 196.132)"/>
                        <path fill="#249D60" d="M105.837 191.183c-5.984-3.03-13.053-3.03-19.037 0-5.292 3.03 0 4.908 5.292 7.938 5.292 3.03 8.533 6.099 13.772 3.082 5.239-3.016 5.265-7.977-.027-11.02zm-2.01 8.732c-1.422.72-3.103.72-4.525 0l-8.533-4.895c-.73 0-1.323-.593-1.323-1.323 0-.731.592-1.323 1.323-1.323 1.411-.708 3.074-.708 4.485 0l8.586 4.96c.604.128 1.04.657 1.05 1.275.009.617-.41 1.16-1.01 1.306h-.053z"/>
                        <path fill="#249D60" d="M94.619 193.511c-.631-.325-1.38-.325-2.011 0-.246.085-.41.316-.41.576 0 .26.164.49.41.575.635.325 1.388.325 2.024 0 .233-.098.383-.327.38-.58-.003-.252-.159-.478-.393-.57zM101.974 197.758c-.632-.318-1.378-.318-2.01 0-.556.318-.543.834 0 1.164.632.319 1.378.319 2.01 0 .256-.078.431-.314.431-.582 0-.268-.175-.504-.43-.582z"/>
                        <path fill="#FFF" d="M135.654 212.674l-11.357-6.486c-.404-.231-.9-.233-1.307-.003l-.668.377c-.413.234-.559.758-.326 1.17.077.136.19.249.325.326l11.39 6.438c.403.229.897.229 1.3.001l.64-.36c.404-.229.547-.741.319-1.146-.075-.132-.184-.241-.316-.317zm-1.731 5.891l-15.605-8.924c-.405-.231-.902-.233-1.308-.003l-.668.377c-.416.235-.562.762-.327 1.178.076.135.188.247.323.325l15.599 8.927c.404.23.9.233 1.305.005l.675-.38c.417-.234.565-.761.33-1.178-.076-.136-.188-.25-.324-.327zm18.225 3.649l-12.463-7.197c-.405-.234-.904-.236-1.312-.006l-.665.376c-.418.235-.565.765-.329 1.182.076.135.187.247.322.325l12.463 7.197c.405.234.905.236 1.312.006l.665-.376c.418-.235.565-.765.33-1.182-.077-.135-.188-.247-.323-.325zm-15.468-1.277l-.666.377c-.417.235-.564.764-.328 1.18.076.136.188.248.322.326l3.242 1.867c.405.234.904.236 1.311.006l.666-.376c.417-.236.564-.765.328-1.182-.076-.135-.187-.247-.322-.324l-3.242-1.868c-.405-.234-.904-.236-1.31-.006z"/>
                    </g>
                </g>
            </g>
        </g>
    </g>
</svg>
