<svg version="1.0" xmlns="http://www.w3.org/2000/svg"
 width="190.000000pt" height="211.000000pt" viewBox="0 0 190.000000 211.000000"
 preserveAspectRatio="xMidYMid meet">
<metadata>
Created by potrace 1.16, written by Peter Selinger 2001-2019
</metadata>
<g transform="translate(0.000000,211.000000) scale(0.100000,-0.100000)"
fill="#000000" stroke="none">
<path d="M234 2061 c4 -30 2 -52 -4 -56 -7 -4 -7 -12 0 -25 13 -24 13 -130 0
-130 -5 0 -10 -10 -10 -22 0 -19 2 -20 10 -8 7 11 10 -2 11 -45 3 -85 1 -157
-5 -162 -3 -3 -21 5 -41 17 l-35 22 2 -24 c3 -18 -2 -24 -24 -26 -42 -5 -34
-19 31 -52 33 -16 62 -33 64 -38 3 -4 9 -99 13 -210 l7 -202 27 0 c32 0 41 -7
33 -26 -3 -8 -18 -14 -34 -14 -24 0 -30 -5 -37 -32 -7 -30 -32 -52 -32 -29 0
6 4 11 9 11 16 0 19 49 4 54 -25 10 -33 7 -33 -14 0 -18 -5 -19 -82 -13 -58 4
-87 11 -95 22 -10 13 -12 1 -13 -61 0 -71 2 -78 19 -78 11 0 23 -4 26 -10 4
-6 -5 -10 -19 -10 -16 0 -26 -6 -26 -15 0 -8 5 -15 10 -15 6 0 10 -9 10 -20 0
-11 -4 -20 -10 -20 -5 0 -10 -20 -10 -45 0 -34 4 -45 16 -45 11 0 14 6 9 20
-5 15 -2 20 13 20 10 0 22 3 25 6 9 9 211 9 226 0 6 -4 9 -12 6 -17 -9 -13 9
-11 24 3 10 11 11 10 6 -5 -10 -24 21 -23 35 2 8 16 6 20 -8 23 -12 3 -5 11
28 34 52 36 80 47 80 34 0 -16 37 -11 44 5 3 9 12 12 23 9 10 -3 7 1 -7 10
l-25 14 28 11 c16 6 25 15 22 21 -9 15 -18 13 -66 -20 -24 -16 -48 -25 -52
-21 -4 4 -10 60 -12 123 l-5 115 134 2 c117 2 134 0 140 -15 4 -11 -1 -22 -14
-31 -11 -8 -20 -22 -20 -32 0 -10 -7 -24 -15 -31 -9 -7 -13 -21 -10 -31 9 -28
-5 -71 -22 -65 -8 3 -11 1 -8 -4 3 -6 2 -10 -4 -10 -6 0 -13 -11 -17 -25 -3
-14 -12 -25 -19 -25 -17 0 -40 -28 -31 -38 4 -4 14 2 22 12 12 18 14 18 14 3
0 -10 -11 -22 -23 -26 -13 -5 -31 -17 -40 -26 -15 -15 -17 -15 -17 -1 0 11 -9
16 -29 16 -38 0 -81 -43 -82 -84 -3 -70 -9 -150 -13 -153 -2 -2 -13 0 -26 5
-19 7 -20 10 -7 15 9 3 19 23 23 43 5 30 3 40 -11 51 -11 7 -13 13 -6 13 7 0
10 4 6 9 -3 5 -1 12 5 16 18 11 11 26 -11 23 -17 -2 -21 -11 -24 -52 -2 -30
-11 -59 -24 -77 -13 -17 -21 -43 -21 -66 0 -23 -3 -33 -8 -25 -6 9 -12 5 -22
-15 -7 -15 -12 -35 -11 -43 1 -9 -5 -35 -14 -59 -8 -24 -15 -60 -15 -81 0 -21
-7 -43 -15 -50 -8 -7 -15 -25 -15 -41 0 -16 -8 -51 -19 -78 -24 -64 -18 -151
10 -151 14 0 19 7 19 27 0 14 7 34 16 44 14 15 18 16 30 4 8 -7 14 -27 14 -44
0 -28 3 -31 30 -31 21 0 30 5 30 16 0 13 6 15 27 9 15 -3 30 -11 33 -16 4 -5
51 -8 106 -8 99 0 100 1 102 25 1 14 12 38 24 54 24 33 45 41 29 12 -15 -28
17 -92 45 -92 19 0 24 8 32 43 5 27 13 41 22 39 7 -2 17 3 21 9 13 21 21 -34
10 -64 -10 -25 -9 -27 15 -27 20 0 25 4 20 16 -3 8 4 36 16 62 21 44 23 45 26
20 2 -15 -1 -43 -7 -62 -9 -35 -9 -36 19 -36 27 0 28 1 23 41 -5 32 -2 44 11
51 9 5 16 15 16 23 0 8 6 12 14 9 10 -4 14 -22 13 -65 -2 -58 -2 -59 26 -59
26 0 36 13 18 24 -11 7 -6 48 9 73 9 14 10 31 2 66 -7 37 -7 49 4 58 16 13 18
52 5 77 -6 11 -4 31 5 57 11 34 11 43 -1 61 -14 22 -11 58 8 82 5 7 7 27 4 45
-3 18 1 50 9 72 7 22 14 56 14 76 0 21 9 47 21 63 11 14 21 35 22 47 1 12 11
25 23 29 12 5 25 14 29 20 6 9 10 9 15 -1 5 -7 0 -28 -13 -51 -18 -30 -20 -41
-10 -56 9 -15 8 -25 -3 -47 -17 -34 -18 -82 -1 -88 8 -3 2 -13 -16 -29 -23
-20 -27 -31 -26 -71 1 -26 4 -47 6 -47 7 0 63 61 63 68 0 4 11 19 25 34 31 34
31 36 0 30 -28 -5 -33 9 -10 28 20 16 19 59 -1 67 -9 3 -12 9 -7 12 19 13 42
75 32 87 -7 8 -6 14 1 19 6 3 8 10 5 15 -3 5 4 15 16 23 28 20 75 8 71 -19 -6
-29 -5 -62 2 -80 5 -12 8 -13 20 -2 9 8 10 15 4 19 -15 9 1 31 15 23 9 -5 9
-3 0 6 -10 11 -15 11 -28 0 -11 -9 -15 -9 -15 -1 0 7 15 18 33 26 19 8 40 28
51 50 12 21 25 34 33 31 7 -3 13 0 13 7 0 7 -14 12 -38 11 -60 -1 -73 -4 -68
-12 3 -5 -18 -8 -45 -8 -44 1 -55 6 -79 32 -15 17 -41 40 -59 50 -17 10 -31
21 -31 25 0 18 74 100 86 95 9 -3 14 2 14 14 0 11 -5 20 -11 20 -6 0 -8 9 -4
21 8 23 -20 55 -51 61 -21 3 -23 -14 -9 -65 7 -26 5 -28 -16 -25 -23 3 -24 6
-23 73 1 39 3 90 4 115 3 44 3 44 9 11 5 -29 12 -36 40 -44 18 -4 37 -5 41 0
4 4 10 99 13 211 l6 202 -25 0 c-15 0 -24 6 -24 15 0 9 9 15 25 15 24 0 25 2
25 65 l0 65 -42 0 c-66 0 -71 7 -69 94 l2 76 -60 0 c-54 0 -61 -2 -61 -20 0
-27 -18 -25 -22 3 -3 20 -9 22 -65 25 l-63 3 0 -36 c0 -22 -4 -34 -10 -30 -5
3 -10 19 -10 36 0 29 0 29 -60 29 l-60 0 -1 -52 c-1 -29 -4 -66 -8 -82 -6 -29
-6 -30 -74 -27 l-68 2 3 -65 2 -66 33 0 c48 0 44 -28 -4 -32 l-38 -3 -2 -63
c-1 -50 2 -65 15 -69 9 -4 18 -1 20 5 2 7 8 12 13 12 6 0 7 -4 4 -10 -3 -5 1
-10 10 -10 12 0 14 -4 6 -18 -7 -14 -18 -18 -40 -14 -29 4 -31 2 -31 -27 0
-17 -4 -31 -10 -31 -5 0 -10 13 -10 29 0 26 -4 30 -32 33 -21 2 -33 8 -33 18
0 11 9 14 33 12 l32 -3 0 70 0 71 -35 0 c-29 0 -35 4 -35 21 0 18 5 20 37 17
l37 -3 4 63 c4 59 3 62 -20 62 -39 0 -68 12 -68 26 0 10 13 14 45 14 l45 0 0
64 0 65 -47 3 c-36 2 -49 7 -51 21 -3 14 4 17 47 17 39 0 51 4 51 15 0 13 -20
15 -121 15 l-122 0 7 -49z m715 -322 c2 -8 5 -8 11 0 5 9 13 6 30 -7 16 -13
20 -23 14 -33 -8 -14 -10 -19 -12 -51 -2 -12 -7 -15 -19 -11 -10 3 1 -12 24
-34 33 -30 43 -48 45 -75 2 -20 6 -34 9 -32 4 2 12 -3 19 -12 10 -11 10 -18 2
-26 -15 -15 -15 -48 0 -48 6 0 8 3 5 7 -4 3 -2 12 4 19 9 11 13 11 25 -1 21
-20 6 -45 -27 -45 -19 0 -29 -5 -29 -15 0 -22 -17 -18 -23 5 -3 13 0 20 9 20
10 0 13 12 12 42 -1 24 -3 37 -6 30 -8 -26 -40 -33 -76 -15 -44 20 -46 38 -7
46 32 7 54 36 45 61 -7 19 -71 49 -93 43 -9 -2 -22 2 -29 9 -9 10 -32 12 -85
8 -54 -4 -77 -1 -92 10 -34 25 -7 38 58 28 45 -7 60 -6 69 5 24 30 49 36 69
17 10 -9 19 -15 20 -13 6 23 6 78 0 75 -4 -3 -13 0 -21 5 -11 7 -6 8 15 4 16
-2 32 -10 34 -16z m81 -911 c0 -5 -9 -28 -19 -51 -10 -23 -27 -69 -36 -102 -9
-33 -26 -88 -37 -123 -10 -34 -18 -70 -17 -80 1 -9 -1 -25 -6 -34 -4 -10 -6
-28 -6 -40 4 -47 3 -125 0 -192 -4 -64 -6 -69 -27 -71 -31 -2 -49 20 -26 33
10 5 18 20 20 33 1 13 4 35 8 48 3 14 1 30 -5 37 -13 16 -21 74 -10 74 5 0 11
12 14 26 3 20 -1 28 -20 37 -30 13 -26 43 5 40 13 -2 21 1 17 7 -3 5 1 23 10
39 9 19 11 32 5 36 -15 9 -12 61 5 75 8 7 15 29 15 49 0 38 11 64 26 61 5 0
12 17 15 39 6 45 34 82 55 74 8 -3 14 -9 14 -15z m-299 -65 c13 -21 25 -40 29
-43 3 -3 18 -30 34 -60 16 -30 35 -63 42 -74 13 -18 8 -50 -6 -41 -4 2 -7 -25
-6 -60 0 -36 -4 -69 -11 -76 -7 -7 -8 -21 -2 -42 21 -73 -1 -120 -28 -61 -10
21 -9 30 4 50 14 22 14 26 1 42 -24 26 -30 68 -13 82 8 6 19 9 25 5 6 -4 10 6
10 25 0 17 -4 29 -10 25 -5 -3 -7 -12 -3 -20 8 -24 -10 -17 -30 11 -22 29 -18
60 6 58 28 -3 18 9 -70 81 -71 57 -83 72 -83 98 0 29 1 30 20 12 21 -19 50
-14 50 10 0 26 17 17 41 -22z m-155 -24 c4 -23 10 -36 14 -29 5 8 10 9 14 2 8
-14 -11 -25 -30 -18 -9 3 -12 1 -9 -4 3 -6 1 -10 -6 -10 -6 0 -18 -8 -26 -17
-8 -10 -12 -12 -8 -5 4 8 -2 12 -19 12 -14 0 -26 -4 -26 -10 0 -5 7 -10 15
-10 8 0 15 -4 15 -10 0 -5 7 -10 15 -10 15 0 33 13 80 59 l24 23 25 -28 c14
-16 26 -41 26 -56 0 -15 4 -29 9 -32 12 -8 20 -55 10 -62 -5 -3 -12 2 -15 10
-7 18 -34 22 -34 6 0 -5 7 -10 15 -10 18 0 19 -12 3 -28 -9 -9 -9 -12 2 -12
25 0 50 -32 50 -66 0 -42 -14 -50 -34 -20 -8 14 -24 27 -34 30 -9 3 -23 19
-29 36 -13 34 -34 46 -61 34 -9 -4 -20 -6 -24 -6 -11 3 -10 -16 2 -39 6 -10
20 -19 30 -19 18 0 19 -3 8 -20 -13 -21 -45 -36 -55 -26 -3 3 0 13 8 23 8 9 9
14 2 10 -6 -4 -13 -4 -16 0 -2 5 -2 2 -1 -4 7 -27 -28 -11 -73 33 -40 40 -46
52 -47 88 -1 27 -5 40 -13 39 -19 -4 -16 11 7 37 23 26 24 38 10 74 -8 22 -6
28 15 42 13 8 34 14 47 12 19 -2 23 -9 23 -35 0 -24 5 -33 20 -35 17 -4 20 1
21 28 1 33 18 64 35 64 5 0 12 -18 15 -41z"/>
<path d="M497 2034 c-4 -4 -7 -34 -7 -66 l0 -58 59 0 59 0 7 56 c4 31 5 57 3
59 -8 8 -114 15 -121 9z"/>
<path d="M0 1902 l0 -68 50 -48 c31 -30 50 -43 50 -33 0 8 -6 18 -12 20 -10 4
-10 6 0 6 9 1 12 27 12 96 l0 95 -50 0 -50 0 0 -68z"/>
<path d="M1825 1870 c-16 -11 -41 -19 -55 -18 -14 2 -45 -5 -70 -14 -25 -9
-57 -19 -72 -22 -16 -4 -28 -13 -28 -21 0 -8 -5 -15 -11 -15 -5 0 -7 5 -4 10
3 6 2 10 -4 10 -5 0 -11 -10 -13 -22 -2 -17 -13 -25 -40 -32 -65 -16 -42 -25
60 -23 87 1 218 -12 286 -29 l26 -6 0 101 c0 98 -1 101 -22 101 -13 0 -36 -9
-53 -20z"/>
<path d="M1656 1591 c-3 -24 -6 -115 -6 -203 l0 -158 24 6 c28 7 40 -8 42 -51
2 -68 28 -270 34 -275 4 -3 9 -14 11 -25 3 -13 14 -21 32 -23 23 -3 27 0 27
22 0 24 4 26 40 26 l39 0 1 275 c0 190 -3 275 -10 275 -6 0 -9 4 -5 9 3 6 -12
9 -37 7 -24 -2 -47 1 -51 8 -6 8 -10 8 -14 -1 -5 -13 -60 -18 -87 -7 -10 4
-16 18 -16 40 0 32 2 34 38 35 77 2 77 2 80 36 4 36 -4 40 -89 45 l-47 3 -6
-44z"/>
<path d="M1466 1353 c-15 -81 -17 -113 -7 -113 6 0 11 -9 11 -21 0 -11 4 -18
10 -14 5 3 7 12 3 20 -3 10 1 15 12 15 9 0 14 -4 11 -9 -4 -5 0 -11 6 -14 10
-4 11 -7 1 -18 -18 -18 -16 -39 2 -39 13 0 19 22 18 68 -1 6 9 12 21 12 11 0
30 8 41 16 20 15 20 16 -10 40 -16 14 -45 39 -63 55 -41 36 -49 36 -56 2z"/>
<path d="M1383 1223 c-19 -4 -23 -11 -23 -40 0 -22 7 -41 18 -49 16 -13 16
-15 0 -28 -10 -7 -18 -16 -18 -19 0 -3 8 -8 18 -10 16 -4 16 -5 0 -6 -26 -2
-22 -20 6 -33 29 -13 42 -38 21 -38 -8 0 -15 -5 -15 -10 0 -6 27 -9 64 -8 37
1 63 6 59 11 -3 5 4 4 15 -2 35 -19 42 -13 42 33 0 25 5 48 10 51 19 12 -1 25
-38 25 -20 0 -44 4 -51 9 -45 29 -64 -56 -20 -90 24 -19 24 -19 -16 -3 -22 9
-44 19 -48 24 -5 4 -1 30 8 58 9 28 15 57 12 64 -3 7 -6 3 -6 -9 -1 -12 -6
-25 -12 -29 -7 -4 -9 0 -6 12 13 43 19 94 11 93 -5 -1 -19 -4 -31 -6z"/>
<path d="M1627 852 c-2 -9 -5 -30 -6 -47 -1 -16 -6 -34 -11 -39 -6 -6 -10 -36
-10 -67 0 -39 -5 -63 -16 -74 -11 -10 -14 -24 -9 -42 3 -14 1 -39 -5 -54 -11
-26 -13 -26 -31 -11 -10 9 -19 24 -19 34 0 10 -7 18 -15 18 -9 0 -12 -6 -9
-15 4 -8 1 -15 -5 -15 -6 0 -11 -9 -11 -20 0 -11 -4 -20 -10 -20 -5 0 -7 7 -4
15 7 17 -7 20 -22 5 -5 -5 -37 -26 -69 -47 -46 -28 -70 -36 -103 -35 -23 0
-40 -4 -37 -9 4 -5 13 -9 21 -9 8 0 14 -6 14 -14 0 -19 -48 -56 -65 -50 -7 3
-16 1 -20 -5 -3 -6 -1 -11 4 -11 36 0 -11 -80 -47 -83 -12 0 -18 -5 -16 -9 8
-12 -14 -10 -35 4 -16 10 -17 15 -7 37 13 31 47 71 59 71 19 0 67 42 67 58 0
9 13 26 29 36 28 19 28 20 9 36 -18 14 -19 17 -4 29 14 12 19 11 35 -3 17 -15
20 -15 44 5 15 11 27 27 27 35 0 8 10 14 25 14 34 0 66 51 56 88 -7 25 -12 27
-69 30 -34 2 -62 7 -62 12 0 6 -7 10 -15 10 -18 0 -56 40 -49 52 3 4 0 8 -5 8
-15 0 -14 -22 4 -46 17 -26 11 -34 -27 -34 -21 0 -28 -5 -28 -19 0 -11 -3 -26
-6 -34 -7 -20 36 -31 118 -28 38 1 69 -2 73 -8 4 -7 -8 -11 -33 -11 -32 0 -44
-6 -73 -39 -19 -22 -45 -41 -59 -43 -15 -2 -30 -14 -38 -30 -7 -16 -17 -28
-22 -28 -5 0 -25 -21 -44 -46 -36 -47 -41 -46 -49 6 -1 14 -2 -33 -1 -105 0
-72 -2 -134 -6 -140 -13 -18 -20 -75 -10 -75 13 0 13 -46 0 -71 -10 -17 -7
-19 29 -19 l39 0 -5 39 c-3 23 -1 41 6 45 12 8 15 68 4 80 -12 12 -10 46 3 57
9 7 21 6 43 -5 39 -21 41 -20 41 8 0 16 12 31 35 47 19 13 35 29 35 34 0 10
42 51 48 47 12 -10 22 4 22 31 0 26 6 36 33 51 17 10 44 30 59 44 22 20 30 23
42 13 8 -7 13 -23 10 -37 -6 -32 12 -31 20 1 4 14 11 25 16 25 17 0 15 -66 -2
-87 -5 -7 -7 -17 -3 -23 3 -5 -1 -10 -9 -10 -11 0 -16 10 -16 31 0 18 -4 28
-10 24 -6 -4 -8 -9 -6 -13 2 -4 -2 -13 -10 -20 -12 -11 -14 -10 -14 3 0 22
-15 18 -29 -8 -7 -13 -27 -31 -46 -41 -24 -13 -35 -27 -40 -53 -3 -20 -11 -33
-18 -30 -7 2 -26 -11 -44 -30 -18 -18 -41 -33 -51 -33 -22 0 -47 -81 -33 -108
5 -9 7 -32 5 -49 -3 -30 -1 -33 22 -33 24 0 26 3 22 35 -2 22 1 36 9 39 8 3
13 23 13 50 0 39 3 45 25 50 14 4 29 14 32 24 9 23 29 42 44 42 15 0 55 47 70
82 12 29 29 38 29 14 0 -7 -7 -36 -16 -64 -9 -28 -14 -58 -10 -68 10 -26 16
-12 27 61 11 79 14 86 35 78 12 -4 14 -14 9 -42 -12 -71 -21 -207 -17 -253 6
-62 29 -65 34 -5 l4 42 19 -42 c12 -29 24 -43 37 -43 15 0 18 8 18 53 0 28 6
74 13 102 l13 50 24 -103 24 -102 38 0 c31 0 38 4 38 19 0 10 7 22 16 25 22 9
22 8 26 -16 3 -20 10 -23 61 -26 47 -2 57 0 57 13 0 9 -5 13 -10 10 -15 -9
-40 14 -40 36 0 11 7 19 16 19 10 0 14 6 10 15 -3 8 -1 15 4 15 5 0 11 -8 14
-17 12 -42 3 305 -10 352 -7 28 -16 66 -19 87 -3 20 -12 39 -20 42 -8 3 -15
12 -15 21 0 8 -3 15 -7 15 -5 0 -8 16 -9 37 0 24 -8 42 -22 54 -12 9 -22 22
-22 28 0 6 -4 11 -9 11 -14 0 -4 -99 11 -117 7 -9 13 -38 14 -64 0 -32 7 -55
18 -68 10 -11 15 -25 11 -30 -3 -6 -2 -11 3 -11 5 0 8 -20 7 -45 -1 -25 2 -45
7 -45 13 0 29 -50 23 -71 -4 -11 -10 -17 -15 -14 -5 3 -11 1 -15 -4 -12 -20
-35 2 -41 37 -3 21 -7 42 -9 47 -1 6 -2 13 -1 16 0 4 -8 17 -19 28 -13 16 -19
37 -20 72 0 30 -5 53 -13 58 -8 5 -15 32 -17 66 -2 32 -9 63 -14 68 -6 6 -11
32 -11 58 0 30 -6 53 -15 63 -12 12 -13 20 -5 35 14 26 13 29 -9 41 -16 8 -21
6 -24 -8z"/>
<path d="M23 642 c-13 -2 -23 -10 -23 -18 0 -10 14 -14 53 -15 28 0 70 -4 92
-9 29 -7 15 -8 -52 -4 -89 5 -93 5 -93 -15 0 -21 18 -27 105 -34 22 -2 7 -4
-33 -5 l-73 -2 3 -51 3 -52 70 -2 c39 0 78 -5 87 -9 13 -6 20 0 32 29 23 53
21 75 -6 76 -22 1 -22 1 1 8 16 4 30 21 42 49 l18 42 -32 1 c-18 1 -43 0 -57
0 -14 -1 -45 2 -70 6 -25 5 -55 7 -67 5z"/>
</g>
</svg>